# xmcd CD database file
#
# Track frame offsets:
#	150
#	34949
#	70766
#	93469
#	117401
#	134187
#	154955
#
# Disc length: 2322 seconds
#
# Revision: 0
# Processed by: cddbd v1.5.2PL0 Copyright (c) Steve Scherf et al.
# Submitted via: CDex 1.70beta3
#
DISCID=66091007
DTITLE=Sahib Shihab - Sentiments
DYEAR=1971
DGENRE=Jazz
TTITLE0=Ma'nee
TTITLE1=The Call
TTITLE2=Rue De La Harpe
TTITLE3=Sentiments
TTITLE4=From Me To You
TTITLE5=Extase
TTITLE6=Companionship
EXTD=YEAR: 1971
EXTT0=
EXTT1=
EXTT2=
EXTT3=
EXTT4=
EXTT5=
EXTT6=
PLAYORDER=
